<svg xmlns="http://www.w3.org/2000/svg" viewBox="0 0 460 150" width="460" height="150" role="img" aria-label="GITHUB activity, day by day">
<defs><style>.mono{font-family:"SFMono-Regular",Menlo,Consolas,"Liberation Mono",monospace;}</style></defs>
<rect width="460" height="150" fill="#0C0E11"/>
<text x="46" y="22" class="mono" font-size="11.5" letter-spacing="3" fill="#CBCFD5">GITHUB</text>
<text x="446" y="22" text-anchor="end" class="mono" font-size="10" letter-spacing="1.5" fill="#5B626C">690 CONTRIBUTIONS</text>
<text x="51.0" y="38" text-anchor="middle" class="mono" font-size="8" fill="#5B626C">1</text>
<text x="103.0" y="38" text-anchor="middle" class="mono" font-size="8" fill="#5B626C">5</text>
<text x="168.0" y="38" text-anchor="middle" class="mono" font-size="8" fill="#5B626C">10</text>
<text x="233.0" y="38" text-anchor="middle" class="mono" font-size="8" fill="#5B626C">15</text>
<text x="298.0" y="38" text-anchor="middle" class="mono" font-size="8" fill="#5B626C">20</text>
<text x="363.0" y="38" text-anchor="middle" class="mono" font-size="8" fill="#5B626C">25</text>
<text x="428.0" y="38" text-anchor="middle" class="mono" font-size="8" fill="#5B626C">30</text>
<rect x="40" y="41" width="412" height="16" rx="4" fill="#13171C"/>
<text x="35" y="53" text-anchor="end" class="mono" font-size="9.5" letter-spacing="1.2" fill="#CBCFD5">MAR</text>
<rect x="358" y="44" width="10" height="10" rx="2" fill="#38414A"/>
<rect x="371" y="44" width="10" height="10" rx="2" fill="#161A1F" stroke="#FFFFFF" stroke-opacity="0.04"/>
<rect x="384" y="44" width="10" height="10" rx="2" fill="#161A1F" stroke="#FFFFFF" stroke-opacity="0.04"/>
<rect x="397" y="44" width="10" height="10" rx="2" fill="#161A1F" stroke="#FFFFFF" stroke-opacity="0.04"/>
<rect x="410" y="44" width="10" height="10" rx="2" fill="#38414A"/>
<rect x="423" y="44" width="10" height="10" rx="2" fill="#161A1F" stroke="#FFFFFF" stroke-opacity="0.04"/>
<rect x="436" y="44" width="10" height="10" rx="2" fill="#161A1F" stroke="#FFFFFF" stroke-opacity="0.04"/>
<rect x="40" y="58" width="412" height="16" rx="4" fill="#13171C"/>
<text x="35" y="70" text-anchor="end" class="mono" font-size="9.5" letter-spacing="1.2" fill="#CBCFD5">APR</text>
<rect x="46" y="61" width="10" height="10" rx="2" fill="#161A1F" stroke="#FFFFFF" stroke-opacity="0.04"/>
<rect x="59" y="61" width="10" height="10" rx="2" fill="#161A1F" stroke="#FFFFFF" stroke-opacity="0.04"/>
<rect x="72" y="61" width="10" height="10" rx="2" fill="#161A1F" stroke="#FFFFFF" stroke-opacity="0.04"/>
<rect x="85" y="61" width="10" height="10" rx="2" fill="#161A1F" stroke="#FFFFFF" stroke-opacity="0.04"/>
<rect x="98" y="61" width="10" height="10" rx="2" fill="#6B7480"/>
<rect x="111" y="61" width="10" height="10" rx="2" fill="#161A1F" stroke="#FFFFFF" stroke-opacity="0.04"/>
<rect x="124" y="61" width="10" height="10" rx="2" fill="#38414A"/>
<rect x="137" y="61" width="10" height="10" rx="2" fill="#38414A"/>
<rect x="150" y="61" width="10" height="10" rx="2" fill="#AAB1BA"/>
<rect x="163" y="61" width="10" height="10" rx="2" fill="#38414A"/>
<rect x="176" y="61" width="10" height="10" rx="2" fill="#AAB1BA"/>
<rect x="189" y="61" width="10" height="10" rx="2" fill="#161A1F" stroke="#FFFFFF" stroke-opacity="0.04"/>
<rect x="202" y="61" width="10" height="10" rx="2" fill="#161A1F" stroke="#FFFFFF" stroke-opacity="0.04"/>
<rect x="215" y="61" width="10" height="10" rx="2" fill="#161A1F" stroke="#FFFFFF" stroke-opacity="0.04"/>
<rect x="228" y="61" width="10" height="10" rx="2" fill="#161A1F" stroke="#FFFFFF" stroke-opacity="0.04"/>
<rect x="241" y="61" width="10" height="10" rx="2" fill="#161A1F" stroke="#FFFFFF" stroke-opacity="0.04"/>
<rect x="254" y="61" width="10" height="10" rx="2" fill="#161A1F" stroke="#FFFFFF" stroke-opacity="0.04"/>
<rect x="267" y="61" width="10" height="10" rx="2" fill="#161A1F" stroke="#FFFFFF" stroke-opacity="0.04"/>
<rect x="280" y="61" width="10" height="10" rx="2" fill="#161A1F" stroke="#FFFFFF" stroke-opacity="0.04"/>
<rect x="293" y="61" width="10" height="10" rx="2" fill="#161A1F" stroke="#FFFFFF" stroke-opacity="0.04"/>
<rect x="306" y="61" width="10" height="10" rx="2" fill="#6B7480"/>
<rect x="319" y="61" width="10" height="10" rx="2" fill="#38414A"/>
<rect x="332" y="61" width="10" height="10" rx="2" fill="#38414A"/>
<rect x="345" y="61" width="10" height="10" rx="2" fill="#161A1F" stroke="#FFFFFF" stroke-opacity="0.04"/>
<rect x="358" y="61" width="10" height="10" rx="2" fill="#AAB1BA"/>
<rect x="371" y="61" width="10" height="10" rx="2" fill="#161A1F" stroke="#FFFFFF" stroke-opacity="0.04"/>
<rect x="384" y="61" width="10" height="10" rx="2" fill="#F2F4F6"/>
<rect x="397" y="61" width="10" height="10" rx="2" fill="#161A1F" stroke="#FFFFFF" stroke-opacity="0.04"/>
<rect x="410" y="61" width="10" height="10" rx="2" fill="#AAB1BA"/>
<rect x="423" y="61" width="10" height="10" rx="2" fill="#F2F4F6"/>
<rect x="40" y="75" width="412" height="16" rx="4" fill="#13171C"/>
<text x="35" y="87" text-anchor="end" class="mono" font-size="9.5" letter-spacing="1.2" fill="#CBCFD5">MAY</text>
<rect x="46" y="78" width="10" height="10" rx="2" fill="#161A1F" stroke="#FFFFFF" stroke-opacity="0.04"/>
<rect x="59" y="78" width="10" height="10" rx="2" fill="#161A1F" stroke="#FFFFFF" stroke-opacity="0.04"/>
<rect x="72" y="78" width="10" height="10" rx="2" fill="#161A1F" stroke="#FFFFFF" stroke-opacity="0.04"/>
<rect x="85" y="78" width="10" height="10" rx="2" fill="#161A1F" stroke="#FFFFFF" stroke-opacity="0.04"/>
<rect x="98" y="78" width="10" height="10" rx="2" fill="#38414A"/>
<rect x="111" y="78" width="10" height="10" rx="2" fill="#AAB1BA"/>
<rect x="124" y="78" width="10" height="10" rx="2" fill="#6B7480"/>
<rect x="137" y="78" width="10" height="10" rx="2" fill="#161A1F" stroke="#FFFFFF" stroke-opacity="0.04"/>
<rect x="150" y="78" width="10" height="10" rx="2" fill="#161A1F" stroke="#FFFFFF" stroke-opacity="0.04"/>
<rect x="163" y="78" width="10" height="10" rx="2" fill="#161A1F" stroke="#FFFFFF" stroke-opacity="0.04"/>
<rect x="176" y="78" width="10" height="10" rx="2" fill="#F2F4F6"/>
<rect x="189" y="78" width="10" height="10" rx="2" fill="#38414A"/>
<rect x="202" y="78" width="10" height="10" rx="2" fill="#6B7480"/>
<rect x="215" y="78" width="10" height="10" rx="2" fill="#F2F4F6"/>
<rect x="228" y="78" width="10" height="10" rx="2" fill="#F2F4F6"/>
<rect x="241" y="78" width="10" height="10" rx="2" fill="#6B7480"/>
<rect x="254" y="78" width="10" height="10" rx="2" fill="#161A1F" stroke="#FFFFFF" stroke-opacity="0.04"/>
<rect x="267" y="78" width="10" height="10" rx="2" fill="#6B7480"/>
<rect x="280" y="78" width="10" height="10" rx="2" fill="#161A1F" stroke="#FFFFFF" stroke-opacity="0.04"/>
<rect x="293" y="78" width="10" height="10" rx="2" fill="#161A1F" stroke="#FFFFFF" stroke-opacity="0.04"/>
<rect x="306" y="78" width="10" height="10" rx="2" fill="#F2F4F6"/>
<rect x="319" y="78" width="10" height="10" rx="2" fill="#161A1F" stroke="#FFFFFF" stroke-opacity="0.04"/>
<rect x="332" y="78" width="10" height="10" rx="2" fill="#AAB1BA"/>
<rect x="345" y="78" width="10" height="10" rx="2" fill="#AAB1BA"/>
<rect x="358" y="78" width="10" height="10" rx="2" fill="#38414A"/>
<rect x="371" y="78" width="10" height="10" rx="2" fill="#161A1F" stroke="#FFFFFF" stroke-opacity="0.04"/>
<rect x="384" y="78" width="10" height="10" rx="2" fill="#161A1F" stroke="#FFFFFF" stroke-opacity="0.04"/>
<rect x="397" y="78" width="10" height="10" rx="2" fill="#F2F4F6"/>
<rect x="410" y="78" width="10" height="10" rx="2" fill="#38414A"/>
<rect x="423" y="78" width="10" height="10" rx="2" fill="#F2F4F6"/>
<rect x="436" y="78" width="10" height="10" rx="2" fill="#AAB1BA"/>
<rect x="40" y="92" width="412" height="16" rx="4" fill="#13171C"/>
<text x="35" y="104" text-anchor="end" class="mono" font-size="9.5" letter-spacing="1.2" fill="#CBCFD5">JUN</text>
<rect x="46" y="95" width="10" height="10" rx="2" fill="#AAB1BA"/>
<rect x="59" y="95" width="10" height="10" rx="2" fill="#161A1F" stroke="#FFFFFF" stroke-opacity="0.04"/>
<rect x="72" y="95" width="10" height="10" rx="2" fill="#6B7480"/>
<rect x="85" y="95" width="10" height="10" rx="2" fill="#F2F4F6"/>
<rect x="98" y="95" width="10" height="10" rx="2" fill="#6B7480"/>
<rect x="111" y="95" width="10" height="10" rx="2" fill="#F2F4F6"/>
<rect x="124" y="95" width="10" height="10" rx="2" fill="#38414A"/>
<rect x="137" y="95" width="10" height="10" rx="2" fill="#161A1F" stroke="#FFFFFF" stroke-opacity="0.04"/>
<rect x="150" y="95" width="10" height="10" rx="2" fill="#38414A"/>
<rect x="163" y="95" width="10" height="10" rx="2" fill="#38414A"/>
<rect x="176" y="95" width="10" height="10" rx="2" fill="#161A1F" stroke="#FFFFFF" stroke-opacity="0.04"/>
<rect x="189" y="95" width="10" height="10" rx="2" fill="#161A1F" stroke="#FFFFFF" stroke-opacity="0.04"/>
<rect x="202" y="95" width="10" height="10" rx="2" fill="#F2F4F6"/>
<rect x="215" y="95" width="10" height="10" rx="2" fill="#AAB1BA"/>
<rect x="228" y="95" width="10" height="10" rx="2" fill="#F2F4F6"/>
<rect x="241" y="95" width="10" height="10" rx="2" fill="#38414A"/>
<rect x="254" y="95" width="10" height="10" rx="2" fill="#38414A"/>
<rect x="267" y="95" width="10" height="10" rx="2" fill="#161A1F" stroke="#FFFFFF" stroke-opacity="0.04"/>
<rect x="280" y="95" width="10" height="10" rx="2" fill="#161A1F" stroke="#FFFFFF" stroke-opacity="0.04"/>
<rect x="293" y="95" width="10" height="10" rx="2" fill="#161A1F" stroke="#FFFFFF" stroke-opacity="0.04"/>
<rect x="306" y="95" width="10" height="10" rx="2" fill="#161A1F" stroke="#FFFFFF" stroke-opacity="0.04"/>
<rect x="319" y="95" width="10" height="10" rx="2" fill="#161A1F" stroke="#FFFFFF" stroke-opacity="0.04"/>
<rect x="332" y="95" width="10" height="10" rx="2" fill="#161A1F" stroke="#FFFFFF" stroke-opacity="0.04"/>
<rect x="345" y="95" width="10" height="10" rx="2" fill="#6B7480"/>
<rect x="358" y="95" width="10" height="10" rx="2" fill="#161A1F" stroke="#FFFFFF" stroke-opacity="0.04"/>
<rect x="371" y="95" width="10" height="10" rx="2" fill="#6B7480"/>
<rect x="384" y="95" width="10" height="10" rx="2" fill="#6B7480"/>
<rect x="397" y="95" width="10" height="10" rx="2" fill="#38414A"/>
<rect x="410" y="95" width="10" height="10" rx="2" fill="#38414A"/>
<rect x="423" y="95" width="10" height="10" rx="2" fill="#6B7480"/>
<rect x="40" y="109" width="412" height="16" rx="4" fill="#13171C"/>
<text x="35" y="121" text-anchor="end" class="mono" font-size="9.5" letter-spacing="1.2" fill="#CBCFD5">JUL</text>
<rect x="46" y="112" width="10" height="10" rx="2" fill="#161A1F" stroke="#FFFFFF" stroke-opacity="0.04"/>
<rect x="59" y="112" width="10" height="10" rx="2" fill="#AAB1BA"/>
<rect x="72" y="112" width="10" height="10" rx="2" fill="#161A1F" stroke="#FFFFFF" stroke-opacity="0.04"/>
<rect x="85" y="112" width="10" height="10" rx="2" fill="#161A1F" stroke="#FFFFFF" stroke-opacity="0.04"/>
<rect x="98" y="112" width="10" height="10" rx="2" fill="#161A1F" stroke="#FFFFFF" stroke-opacity="0.04"/>
<rect x="111" y="112" width="10" height="10" rx="2" fill="#F2F4F6"/>
<rect x="124" y="112" width="10" height="10" rx="2" fill="#161A1F" stroke="#FFFFFF" stroke-opacity="0.04"/>
<rect x="137" y="112" width="10" height="10" rx="2" fill="#161A1F" stroke="#FFFFFF" stroke-opacity="0.04"/>
<rect x="150" y="112" width="10" height="10" rx="2" fill="#161A1F" stroke="#FFFFFF" stroke-opacity="0.04"/>
<rect x="163" y="112" width="10" height="10" rx="2" fill="#161A1F" stroke="#FFFFFF" stroke-opacity="0.04"/>
<rect x="176" y="112" width="10" height="10" rx="2" fill="#161A1F" stroke="#FFFFFF" stroke-opacity="0.04"/>
<rect x="189" y="112" width="10" height="10" rx="2" fill="#161A1F" stroke="#FFFFFF" stroke-opacity="0.04"/>
<rect x="202" y="112" width="10" height="10" rx="2" fill="#161A1F" stroke="#FFFFFF" stroke-opacity="0.04"/>
<rect x="215" y="112" width="10" height="10" rx="2" fill="#161A1F" stroke="#FFFFFF" stroke-opacity="0.04"/>
<rect x="228" y="112" width="10" height="10" rx="2" fill="#161A1F" stroke="#FFFFFF" stroke-opacity="0.04"/>
<rect x="241" y="112" width="10" height="10" rx="2" fill="#161A1F" stroke="#FFFFFF" stroke-opacity="0.04"/>
<rect x="254" y="112" width="10" height="10" rx="2" fill="#161A1F" stroke="#FFFFFF" stroke-opacity="0.04"/>
<rect x="267" y="112" width="10" height="10" rx="2" fill="#161A1F" stroke="#FFFFFF" stroke-opacity="0.04"/>
<rect x="280" y="112" width="10" height="10" rx="2" fill="#161A1F" stroke="#FFFFFF" stroke-opacity="0.04"/>
<rect x="293" y="112" width="10" height="10" rx="2" fill="#161A1F" stroke="#FFFFFF" stroke-opacity="0.04"/>
</svg>